<svg width="38" height="29" viewBox="0 0 38 29" fill="none" xmlns="http://www.w3.org/2000/svg">
<g clip-path="url(#clip0_390:2924)">
<path d="M31.7064 2.83047C29.3694 1.77191 26.8633 0.992011 24.243 0.545331C24.1953 0.53671 24.1476 0.558254 24.123 0.601342C23.8007 1.16723 23.4437 1.90548 23.1937 2.48574C20.3755 2.06923 17.5716 2.06923 14.8112 2.48574C14.5611 1.89258 14.1911 1.16723 13.8674 0.601342C13.8428 0.559691 13.7951 0.538148 13.7474 0.545331C11.1286 0.990583 8.6225 1.77048 6.28404 2.83047C6.2638 2.83908 6.24645 2.85346 6.23493 2.87212C1.48141 9.88263 0.179219 16.7208 0.818029 23.4743C0.82092 23.5073 0.839708 23.5389 0.865723 23.559C4.00196 25.8326 7.03995 27.2129 10.0215 28.1278C10.0692 28.1422 10.1198 28.1249 10.1502 28.0862C10.8554 27.1354 11.4842 26.1328 12.0232 25.0786C12.055 25.0168 12.0246 24.9436 11.9596 24.9191C10.9624 24.5457 10.0128 24.0904 9.09942 23.5734C9.02718 23.5317 9.02139 23.4297 9.08786 23.3809C9.28007 23.2387 9.47234 23.0907 9.65588 22.9414C9.68909 22.9141 9.73536 22.9083 9.7744 22.9256C15.7751 25.6301 22.2716 25.6301 28.2016 22.9256C28.2406 22.9069 28.2869 22.9127 28.3215 22.9399C28.5051 23.0893 28.6973 23.2387 28.891 23.3809C28.9575 23.4297 28.9531 23.5317 28.8809 23.5734C27.9675 24.1005 27.0179 24.5457 26.0192 24.9177C25.9542 24.9421 25.9253 25.0168 25.9571 25.0786C26.5077 26.1314 27.1364 27.1339 27.8287 28.0847C27.8576 28.1249 27.9096 28.1422 27.9573 28.1278C30.9534 27.2129 33.9913 25.8326 37.1276 23.559C37.1551 23.5389 37.1724 23.5087 37.1753 23.4757C37.9398 15.668 35.8948 8.88586 31.7541 2.87354C31.7439 2.85346 31.7266 2.83908 31.7064 2.83047ZM12.9193 19.3621C11.1127 19.3621 9.62407 17.7248 9.62407 15.714C9.62407 13.7032 11.0838 12.0658 12.9193 12.0658C14.7692 12.0658 16.2434 13.7175 16.2145 15.714C16.2145 17.7248 14.7548 19.3621 12.9193 19.3621ZM25.1029 19.3621C23.2963 19.3621 21.8077 17.7248 21.8077 15.714C21.8077 13.7032 23.2674 12.0658 25.1029 12.0658C26.9529 12.0658 28.427 13.7175 28.3982 15.714C28.3982 17.7248 26.9529 19.3621 25.1029 19.3621Z" fill="#5865F2"/>
</g>
<defs>
<clipPath id="clip0_390:2924">
<rect width="36.6667" height="28.0392" fill="white" transform="translate(0.666504 0.333496)"/>
</clipPath>
</defs>
</svg>
