<svg width="120" height="120" viewBox="0 0 120 120" fill="none" xmlns="http://www.w3.org/2000/svg">
<g id="Twitter">
<path id="back" fill-rule="evenodd" clip-rule="evenodd" d="M0 60C0 26.8629 26.8629 0 60 0C93.1371 0 120 26.8629 120 60C120 93.1371 93.1371 120 60 120C26.8629 120 0 93.1371 0 60Z" fill="#55ACEE"/>
<path id="Shape" fill-rule="evenodd" clip-rule="evenodd" d="M62.2059 50.7688L62.3318 52.8449L60.2334 52.5907C52.5951 51.6162 45.9221 48.3113 40.2563 42.7608L37.4863 40.0067L36.7729 42.0405C35.262 46.5741 36.2273 51.3619 39.3749 54.5821C41.0537 56.3616 40.676 56.6158 37.7801 55.5566C36.7729 55.2176 35.8915 54.9634 35.8076 55.0905C35.5138 55.3871 36.5211 59.2428 37.3185 60.7681C38.4096 62.8866 40.634 64.9627 43.0682 66.1915L45.1247 67.166L42.6905 67.2084C40.3402 67.2084 40.2563 67.2507 40.5081 68.1405C41.3475 70.8946 44.663 73.8181 48.3562 75.0892L50.9583 75.979L48.692 77.3348C45.3345 79.2838 41.3894 80.3855 37.4444 80.4702C35.5558 80.5126 34.0029 80.682 34.0029 80.8092C34.0029 81.2329 39.1231 83.6056 42.1029 84.5377C51.0422 87.2918 61.6603 86.1054 69.6344 81.4023C75.3002 78.0551 80.966 71.403 83.61 64.9627C85.0369 61.5308 86.4639 55.26 86.4639 52.2517C86.4639 50.3027 86.5898 50.0485 88.94 47.7181C90.325 46.3623 91.626 44.8793 91.8778 44.4556C92.2975 43.6506 92.2556 43.6506 90.1152 44.3709C86.5478 45.642 86.0442 45.4725 87.8069 43.5658C89.1079 42.21 90.6608 39.7525 90.6608 39.0322C90.6608 38.9051 90.0312 39.117 89.3178 39.4983C88.5623 39.922 86.8836 40.5576 85.6245 40.9389L83.3582 41.6592L81.3017 40.261C80.1686 39.4983 78.5738 38.6509 77.7344 38.3967C75.594 37.8035 72.3204 37.8882 70.3898 38.5662C65.1437 40.4728 61.8282 45.3877 62.2059 50.7688Z" fill="white"/>
</g>
</svg>
