<svg width="38" height="38" viewBox="0 0 38 38" fill="none" xmlns="http://www.w3.org/2000/svg">
<path d="M37.3332 18.9998C37.3332 8.87461 29.1251 0.666504 18.9999 0.666504C8.87461 0.666504 0.666504 8.87461 0.666504 18.9998C0.666504 28.1505 7.37073 35.7351 16.1353 37.1105V24.2993H11.4803V18.9998H16.1353V14.9608C16.1353 10.366 18.8723 7.82797 23.06 7.82797C25.0659 7.82797 27.1639 8.18604 27.1639 8.18604V12.6978H24.8521C22.5747 12.6978 21.8644 14.111 21.8644 15.5608V18.9998H26.9491L26.1362 24.2993H21.8644V37.1105C30.6289 35.7351 37.3332 28.1505 37.3332 18.9998" fill="#1877F2"/>
<path d="M26.1364 24.2995L26.9492 19H21.8646V15.5609C21.8646 14.1111 22.5748 12.6979 24.8523 12.6979H27.1641V8.18619C27.1641 8.18619 25.066 7.82812 23.0602 7.82812C18.8724 7.82812 16.1354 10.3661 16.1354 14.9609V19H11.4805V24.2995H16.1354V37.1106C17.083 37.2591 18.0408 37.3336 19 37.3333C19.9745 37.3333 20.9312 37.2571 21.8646 37.1106V24.2995H26.1364Z" fill="white"/>
</svg>
