<svg width="38" height="38" viewBox="0 0 38 38" fill="none" xmlns="http://www.w3.org/2000/svg">
<path d="M19.0058 0.666504C11.3518 0.666504 9.11332 0.674402 8.6782 0.710508C7.10747 0.841108 6.13006 1.08849 5.06524 1.61879C4.24462 2.02639 3.59744 2.49886 2.95871 3.16118C1.79547 4.36902 1.09047 5.85499 0.835264 7.62135C0.711185 8.47886 0.675089 8.65374 0.667757 13.0338C0.664937 14.4938 0.667757 16.4153 0.667757 18.9926C0.667757 26.6425 0.676217 28.8794 0.712877 29.3138C0.839776 30.8426 1.07947 31.8045 1.58707 32.8566C2.55715 34.8707 4.40987 36.3826 6.59254 36.9467C7.3483 37.1414 8.18301 37.2486 9.2546 37.2993C9.70862 37.3191 14.3362 37.3332 18.9666 37.3332C23.597 37.3332 28.2274 37.3275 28.6702 37.305C29.911 37.2466 30.6315 37.1498 31.4281 36.9439C32.5104 36.6663 33.519 36.1557 34.3836 35.4478C35.2481 34.7399 35.9477 33.8517 36.4336 32.8454C36.9313 31.8186 37.1837 30.8201 37.2979 29.371C37.3227 29.0551 37.3332 24.0181 37.3332 18.9879C37.3332 13.9568 37.3219 8.92905 37.2971 8.61313C37.1815 7.14069 36.9291 6.15061 36.4153 5.10411C35.9937 4.24745 35.5256 3.6077 34.8459 2.95357C33.6334 1.7948 32.15 1.08962 30.3822 0.834621C29.5258 0.71079 29.3552 0.67412 24.9729 0.666504H19.0058Z" fill="url(#paint0_radial_390:3258)"/>
<path d="M19.0058 0.666504C11.3518 0.666504 9.11332 0.674402 8.6782 0.710508C7.10747 0.841108 6.13006 1.08849 5.06524 1.61879C4.24462 2.02639 3.59744 2.49886 2.95871 3.16118C1.79547 4.36902 1.09047 5.85499 0.835264 7.62135C0.711185 8.47886 0.675089 8.65374 0.667757 13.0338C0.664937 14.4938 0.667757 16.4153 0.667757 18.9926C0.667757 26.6425 0.676217 28.8794 0.712877 29.3138C0.839776 30.8426 1.07947 31.8045 1.58707 32.8566C2.55715 34.8707 4.40987 36.3826 6.59254 36.9467C7.3483 37.1414 8.18301 37.2486 9.2546 37.2993C9.70862 37.3191 14.3362 37.3332 18.9666 37.3332C23.597 37.3332 28.2274 37.3275 28.6702 37.305C29.911 37.2466 30.6315 37.1498 31.4281 36.9439C32.5104 36.6663 33.519 36.1557 34.3836 35.4478C35.2481 34.7399 35.9477 33.8517 36.4336 32.8454C36.9313 31.8186 37.1837 30.8201 37.2979 29.371C37.3227 29.0551 37.3332 24.0181 37.3332 18.9879C37.3332 13.9568 37.3219 8.92905 37.2971 8.61313C37.1815 7.14069 36.9291 6.15061 36.4153 5.10411C35.9937 4.24745 35.5256 3.6077 34.8459 2.95357C33.6334 1.7948 32.15 1.08962 30.3822 0.834621C29.5258 0.71079 29.3552 0.67412 24.9729 0.666504H19.0058Z" fill="url(#paint1_radial_390:3258)"/>
<path d="M18.9972 5.46191C15.3211 5.46191 14.8597 5.47799 13.4159 5.54372C11.9749 5.60972 10.9913 5.83792 10.1306 6.17274C9.24035 6.51857 8.48516 6.98117 7.73279 7.73403C6.97986 8.48661 6.51738 9.242 6.17052 10.1322C5.83494 10.9934 5.60652 11.9776 5.54166 13.4184C5.47737 14.8626 5.46045 15.3244 5.46045 19.0015C5.46045 22.6787 5.47681 23.1387 5.54223 24.5829C5.6085 26.0243 5.83664 27.0082 6.17109 27.8691C6.5171 28.7596 6.97957 29.515 7.73223 30.2676C8.48432 31.0207 9.23951 31.4845 10.1292 31.8303C10.9904 32.1651 11.9743 32.3933 13.4151 32.4593C14.8589 32.525 15.32 32.5411 18.9958 32.5411C22.6722 32.5411 23.1322 32.525 24.576 32.4593C26.017 32.3933 27.0017 32.1651 27.863 31.8303C28.7529 31.4845 29.507 31.0207 30.2591 30.2676C31.012 29.515 31.4745 28.7596 31.8214 27.8694C32.1541 27.0082 32.3825 26.0241 32.4502 24.5832C32.5151 23.139 32.532 22.6787 32.532 19.0015C32.532 15.3244 32.5151 14.8629 32.4502 13.4187C32.3825 11.9773 32.1541 10.9934 31.8214 10.1325C31.4745 9.242 31.012 8.48661 30.2591 7.73403C29.5062 6.98089 28.7532 6.51829 27.8621 6.17274C26.9992 5.83792 26.015 5.60972 24.574 5.54372C23.1302 5.47799 22.6705 5.46191 18.9933 5.46191H18.9972ZM17.7829 7.90186C18.1433 7.9013 18.5455 7.90186 18.9972 7.90186C22.6113 7.90186 23.0397 7.91484 24.4669 7.97972C25.7866 8.04008 26.5029 8.26066 26.98 8.44599C27.6117 8.69139 28.0621 8.98475 28.5355 9.45864C29.0093 9.93252 29.3026 10.3838 29.5485 11.0157C29.7337 11.4924 29.9545 12.2089 30.0146 13.529C30.0795 14.9563 30.0936 15.385 30.0936 18.9984C30.0936 22.6118 30.0795 23.0406 30.0146 24.4679C29.9543 25.788 29.7337 26.5044 29.5485 26.9811C29.3031 27.613 29.0093 28.0629 28.5355 28.5365C28.0618 29.0104 27.612 29.3038 26.98 29.5492C26.5034 29.7353 25.7866 29.9553 24.4669 30.0157C23.0399 30.0806 22.6113 30.0947 18.9972 30.0947C15.3828 30.0947 14.9545 30.0806 13.5276 30.0157C12.2078 29.9548 11.4915 29.7342 11.0141 29.5489C10.3824 29.3035 9.93125 29.0101 9.45749 28.5362C8.98374 28.0623 8.69046 27.6121 8.44456 26.98C8.25928 26.5033 8.03848 25.7868 7.97841 24.4667C7.91355 23.0394 7.90058 22.6107 7.90058 18.995C7.90058 15.3794 7.91355 14.9529 7.97841 13.5256C8.03876 12.2055 8.25928 11.489 8.44456 11.0117C8.68989 10.3799 8.98374 9.92857 9.45749 9.45469C9.93125 8.9808 10.3824 8.68744 11.0141 8.44147C11.4913 8.2553 12.2078 8.03529 13.5276 7.97464C14.7763 7.91822 15.2602 7.9013 17.7829 7.89848V7.90186ZM26.2226 10.15C25.9013 10.15 25.5872 10.2453 25.3201 10.4239C25.053 10.6024 24.8448 10.8562 24.7219 11.1531C24.5989 11.45 24.5668 11.7768 24.6295 12.0919C24.6922 12.4071 24.847 12.6966 25.0742 12.9238C25.3014 13.151 25.5909 13.3057 25.906 13.3684C26.2212 13.431 26.5478 13.3987 26.8446 13.2757C27.1414 13.1526 27.395 12.9443 27.5734 12.677C27.7518 12.4097 27.847 12.0956 27.8469 11.7742C27.8469 10.8772 27.1193 10.1494 26.2226 10.1494V10.15ZM18.9972 12.0484C15.1584 12.0484 12.046 15.1616 12.046 19.0015C12.046 22.8414 15.1584 25.9533 18.9972 25.9533C22.8361 25.9533 25.9476 22.8414 25.9476 19.0015C25.9476 15.1616 22.8358 12.0484 18.9969 12.0484H18.9972ZM18.9972 14.4883C21.489 14.4883 23.5092 16.5088 23.5092 19.0015C23.5092 21.4939 21.489 23.5147 18.9972 23.5147C16.5052 23.5147 14.4852 21.4939 14.4852 19.0015C14.4852 16.5088 16.5052 14.4883 18.9972 14.4883V14.4883Z" fill="white"/>
<defs>
<radialGradient id="paint0_radial_390:3258" cx="0" cy="0" r="1" gradientUnits="userSpaceOnUse" gradientTransform="translate(10.4061 40.1573) rotate(-90) scale(36.3394 33.7985)">
<stop stop-color="#FFDD55"/>
<stop offset="0.1" stop-color="#FFDD55"/>
<stop offset="0.5" stop-color="#FF543E"/>
<stop offset="1" stop-color="#C837AB"/>
</radialGradient>
<radialGradient id="paint1_radial_390:3258" cx="0" cy="0" r="1" gradientUnits="userSpaceOnUse" gradientTransform="translate(-5.47536 3.30791) rotate(78.6806) scale(16.2439 66.9578)">
<stop stop-color="#3771C8"/>
<stop offset="0.128" stop-color="#3771C8"/>
<stop offset="1" stop-color="#6600FF" stop-opacity="0"/>
</radialGradient>
</defs>
</svg>
