<svg width="38" height="38" viewBox="0 0 38 38" fill="none" xmlns="http://www.w3.org/2000/svg">
<path d="M18.9998 37.3332C29.1251 37.3332 37.3332 29.1251 37.3332 18.9998C37.3332 8.87462 29.1251 0.666504 18.9998 0.666504C8.87462 0.666504 0.666504 8.87462 0.666504 18.9998C0.666504 29.1251 8.87462 37.3332 18.9998 37.3332Z" fill="#FF4500"/>
<path d="M31.2297 18.9997C31.2297 17.5121 30.0267 16.3307 28.5606 16.3307C27.8388 16.3307 27.1823 16.6149 26.7011 17.0745C24.8636 15.7618 22.3474 14.9087 19.5471 14.7994L20.7721 9.06744L24.7539 9.92055C24.7979 10.927 25.629 11.7365 26.6575 11.7365C27.7075 11.7365 28.5606 10.8834 28.5606 9.83288C28.5606 8.7828 27.7075 7.92969 26.6575 7.92969C25.9136 7.92969 25.2571 8.36725 24.9508 9.00179L20.5099 8.061C20.3786 8.03898 20.2473 8.061 20.1596 8.12665C20.0503 8.19231 19.9847 8.3016 19.9631 8.43291L18.6063 14.821C15.7623 14.9087 13.2026 15.7618 11.343 17.0966C10.8422 16.6182 10.176 16.3517 9.48348 16.3527C7.99584 16.3527 6.81445 17.5557 6.81445 19.0218C6.81445 20.1155 7.4706 21.0342 8.38977 21.4502C8.34573 21.7124 8.32412 21.975 8.32412 22.2597C8.32412 26.3723 13.1153 29.7199 19.0223 29.7199C24.9292 29.7199 29.7204 26.3943 29.7204 22.2597C29.7204 21.9971 29.6984 21.7124 29.6548 21.4502C30.5735 21.0342 31.2297 20.0935 31.2297 18.9997V18.9997ZM12.8963 20.9029C12.8963 19.8529 13.7495 18.9997 14.7999 18.9997C15.85 18.9997 16.7031 19.8529 16.7031 20.9029C16.7031 21.953 15.85 22.8065 14.7999 22.8065C13.7495 22.8281 12.8963 21.953 12.8963 20.9029V20.9029ZM23.5509 25.9568C22.2382 27.2695 19.7441 27.3571 19.0223 27.3571C18.2784 27.3571 15.7844 27.2474 14.4933 25.9568C14.2967 25.7598 14.2967 25.4535 14.4933 25.2566C14.6902 25.06 14.9965 25.06 15.1935 25.2566C16.025 26.0881 17.7752 26.3723 19.0223 26.3723C20.2693 26.3723 22.0412 26.0881 22.8507 25.2566C23.0476 25.06 23.3539 25.06 23.5509 25.2566C23.7258 25.4535 23.7258 25.7598 23.5509 25.9568ZM23.2006 22.8281C22.1505 22.8281 21.2974 21.975 21.2974 20.925C21.2974 19.8749 22.1505 19.0218 23.2006 19.0218C24.251 19.0218 25.1042 19.8749 25.1042 20.925C25.1042 21.953 24.251 22.8281 23.2006 22.8281Z" fill="white"/>
</svg>
